<svg width="1158" height="927" viewBox="0 0 1158 927" fill="none" xmlns="http://www.w3.org/2000/svg">
<path d="M1067.36 510.565C1067.36 539.713 1069.38 568.075 1071.64 595.188C1072.12 600.857 1072.6 606.461 1073.08 612.004C1074.9 633.103 1076.64 653.31 1077.48 672.779C1079.61 722.013 1075.8 764.179 1054.17 799.096C1032.7 833.761 992.483 863.114 917.589 883.821C842.598 904.554 733.985 916.289 577.487 916.496C420.991 916.704 312.384 905.175 237.402 884.52C162.521 863.894 122.303 834.493 100.834 799.73C79.2036 764.706 75.3907 722.38 77.5188 673.012C78.3611 653.471 80.1061 633.194 81.9272 612.032C82.4032 606.501 82.8844 600.91 83.356 595.255C85.6209 568.101 87.6424 539.713 87.6424 510.565C87.6424 288.687 304.321 128.499 577.5 128.499C850.679 128.499 1067.36 288.687 1067.36 510.565Z" fill="#BBEAC0" stroke="black" stroke-width="20"/>
<path d="M1034.73 267.779L1034.76 268.061L1034.82 268.342L1040.65 299.428L1040.65 334.343L1026.39 365.879L1026.1 366.507L1025.91 367.169L1020.88 384.215L739.152 183.498L775.008 149.229L808.268 132.124L832.595 122.584L861.579 116L903.908 108.927L942.744 105.528L988.858 108.657L1002.45 127.539L1010.9 154.294L1016.83 176.544L1016.84 176.575L1021.79 195.377L1030.14 232.248L1034.73 267.779Z" fill="#BBEAC0" stroke="black" stroke-width="20"/>
<path d="M314.733 134.674L315.01 134.738L315.291 134.787L346.453 140.196L379.164 152.405L403.724 176.789L404.213 177.275L404.765 177.689L418.977 188.362L132.419 382.121L112.851 336.546L108.456 299.404L108.024 273.277L111.991 243.821L120.165 201.691L130.561 164.118L149.617 122.009L172.058 115.88L200.079 117.32L222.998 119.541L223.031 119.544L242.376 121.483L279.841 126.545L314.733 134.674Z" fill="#BBEAC0" stroke="black" stroke-width="20"/>
<path d="M737 159L784.5 168.5L1017 362.5L1031.5 385L1035 398.5L1024.58 409.469L712.079 191.469L737 159Z" fill="#BBEAC0"/>
<path d="M137 367L227 209.5L403 162L450.5 182.5L127 401.5L121 390.5L123 386L137 367Z" fill="#BBEAC0"/>
<path d="M570.948 617.862L573.122 618.657L575.266 617.787C629.384 595.822 742.271 568.343 841.58 560.146C891.28 556.044 936.964 556.83 969.991 565.229C986.499 569.427 999.342 575.405 1007.97 583.175C1016.41 590.773 1021 600.222 1021 612.227C1021 637.158 1002.44 666.535 970.178 697.217C938.238 727.597 894.112 758.089 845.729 785.269C797.381 812.431 745.006 836.158 696.708 853.081C648.281 870.048 604.441 880 573.01 880C541.603 880 499.092 870.06 452.664 853.107C406.355 836.198 356.62 812.487 310.905 785.342C265.159 758.178 223.658 727.705 193.678 697.348C163.439 666.729 146 637.312 146 612.227C146 599.975 150.163 590.412 157.622 582.818C165.227 575.075 176.564 569.082 191.275 564.826C220.765 556.296 261.969 555.263 307.859 559.208C399.461 567.081 507.192 594.535 570.948 617.862Z" fill="#C05100" stroke="black" stroke-width="12"/>
<path d="M244.949 561.04L277.112 561.04L309.029 561.04L277.112 633.115L244.949 561.04Z" fill="#F5F5F5"/>
<path d="M854.949 564.04L887.112 564.04L919.029 564.04L887.112 636.115L854.949 564.04Z" fill="#F5F5F5"/>
<line x1="472.595" y1="505.726" x2="528.595" y2="539.726" stroke="black" stroke-width="10"/>
<line x1="687.84" y1="503.122" x2="633.83" y2="540.201" stroke="black" stroke-width="10"/>
<path d="M647.003 232.687C590.737 196.01 550.685 299.119 530.873 276.094C511.061 253.069 525.544 208.122 563.221 175.702C600.899 143.282 647.503 135.666 667.315 158.691C687.128 181.716 676.592 249.442 647.003 232.687Z" fill="#81A284"/>
<path d="M593.714 417.687C593.714 500.687 506.685 487.119 486.873 464.094C467.061 441.069 481.544 396.122 519.221 363.702C533.214 435.187 548.214 420.687 623.315 346.691C643.128 369.716 623.315 346.691 593.714 417.687Z" fill="#81A284"/>
</svg>
