<svg width="1158" height="927" viewBox="0 0 1158 927" fill="none" xmlns="http://www.w3.org/2000/svg">
<path d="M1072.36 510.565C1072.36 539.496 1074.36 567.688 1076.63 594.772C1077.1 600.406 1077.58 605.987 1078.06 611.515C1079.88 632.629 1081.63 652.976 1082.48 672.563C1084.61 722.028 1080.87 765.479 1058.42 801.728C1036.05 837.852 994.502 867.744 918.921 888.64C843.292 909.55 734.157 921.288 577.493 921.496C420.831 921.704 311.699 910.172 236.074 889.341C160.5 868.523 118.952 838.582 96.5798 802.357C74.1273 766.002 70.3855 722.393 72.5234 672.796C73.3708 653.138 75.1279 632.723 76.9503 611.547C77.4252 606.029 77.9045 600.46 78.3733 594.839C80.6358 567.714 82.6424 539.496 82.6424 510.565C82.6424 284.77 302.878 123.499 577.5 123.499C852.121 123.499 1072.36 284.77 1072.36 510.565Z" fill="#BBEAC0" stroke="black" stroke-width="10"/>
<path d="M1039.69 267.139L1039.71 267.28L1039.73 267.42L1045.65 298.964L1045.65 335.421L1030.94 367.939L1030.8 368.253L1030.7 368.584L1023.69 392.357L731.326 184.061L772.077 145.114L806.207 127.561L831.12 117.791L860.612 111.093L903.277 103.963L942.695 100.514L991.543 103.828L1006.97 125.269L1015.7 152.897L1021.66 175.271L1021.67 175.287L1026.64 194.188L1035.07 231.373L1039.69 267.139Z" fill="#BBEAC0" stroke="black" stroke-width="10"/>
<path d="M315.867 129.804L316.006 129.836L316.146 129.861L347.766 135.349L381.923 148.097L407.247 173.241L407.492 173.484L407.767 173.691L427.587 188.576L130.211 389.65L107.971 337.853L103.461 299.74L103.019 272.983L107.055 243.01L115.294 200.546L125.845 162.41L146.031 117.805L171.514 110.845L200.448 112.332L223.497 114.566L223.513 114.567L242.96 116.516L280.745 121.622L315.867 129.804Z" fill="#BBEAC0" stroke="black" stroke-width="10"/>
<path d="M740.5 148.5L771 157L1030 359L1036 370.5L1026 406L713.5 188L740.5 148.5Z" fill="#BBEAC0"/>
<path d="M125 365.5L227 209.5L395 154L450.5 182.5L149 436L115.5 378.5L117.5 373L125 365.5Z" fill="#BBEAC0"/>
<path d="M570.948 617.862L573.122 618.657L575.266 617.787C629.384 595.822 742.271 568.343 841.58 560.146C891.28 556.044 936.964 556.83 969.991 565.229C986.499 569.427 999.342 575.405 1007.97 583.175C1016.41 590.773 1021 600.222 1021 612.227C1021 637.158 1002.44 666.535 970.178 697.217C938.238 727.597 894.112 758.089 845.729 785.269C797.381 812.431 745.006 836.158 696.708 853.081C648.281 870.048 604.441 880 573.01 880C541.603 880 499.092 870.06 452.664 853.107C406.355 836.198 356.62 812.487 310.905 785.342C265.159 758.178 223.658 727.705 193.678 697.348C163.439 666.729 146 637.312 146 612.227C146 599.975 150.163 590.412 157.622 582.818C165.227 575.075 176.564 569.082 191.275 564.826C220.765 556.296 261.969 555.263 307.859 559.208C399.461 567.081 507.192 594.535 570.948 617.862Z" fill="#C05100" stroke="black" stroke-width="12"/>
<path d="M244.949 561.04L277.112 561.04L309.029 561.04L277.112 633.115L244.949 561.04Z" fill="#F5F5F5"/>
<path d="M854.949 564.04L887.112 564.04L919.029 564.04L887.112 636.115L854.949 564.04Z" fill="#F5F5F5"/>
<line x1="472.595" y1="505.726" x2="528.595" y2="539.726" stroke="black" stroke-width="10"/>
<line x1="687.84" y1="503.122" x2="633.83" y2="540.201" stroke="black" stroke-width="10"/>
<path d="M647.003 232.687C590.737 196.01 550.685 299.119 530.873 276.094C511.061 253.069 525.544 208.122 563.221 175.702C600.899 143.282 647.503 135.666 667.315 158.691C687.128 181.716 676.592 249.442 647.003 232.687Z" fill="#81A284"/>
<path d="M593.714 417.687C593.714 500.687 506.685 487.119 486.873 464.094C467.061 441.069 481.544 396.122 519.221 363.702C533.214 435.187 548.214 420.687 623.315 346.691C643.128 369.716 623.315 346.691 593.714 417.687Z" fill="#81A284"/>
</svg>
