<svg width="1000" height="1159" viewBox="0 0 1000 1159" fill="none" xmlns="http://www.w3.org/2000/svg">
<path d="M990 595C990 730.491 935.019 869.112 845.937 973.824C756.869 1078.52 634.464 1148.5 500 1148.5C365.536 1148.5 243.131 1078.52 154.063 973.824C64.9809 869.112 10 730.491 10 595C10 459.298 62.3822 312.659 148.878 200.038C235.386 87.3994 354.99 10 489 10C623.124 10 748.283 87.5188 840.306 200.27C932.3 312.984 990 459.557 990 595Z" fill="#FF862F" stroke="black" stroke-width="20"/>
<path d="M882 789C882 814.325 866.024 843.832 838.681 874.412C811.532 904.774 774.027 935.249 732.9 962.415C691.798 989.564 647.286 1013.27 606.264 1030.17C565.084 1047.14 527.999 1057 501.571 1057C475.172 1057 439.221 1047.15 399.75 1030.21C360.424 1013.32 318.16 989.634 279.299 962.502C240.416 935.354 205.138 904.898 179.651 874.553C154.005 844.019 139 814.463 139 789C139 776.456 142.625 767.002 148.861 759.732C155.187 752.356 164.6 746.767 176.899 742.799C201.66 734.808 236.392 733.918 275.458 736.565C311.193 738.986 349.851 744.302 386.761 749.377C390.045 749.829 393.315 750.278 396.568 750.724C436.185 756.15 473.465 761 501.571 761C529.662 761 568.053 756.154 609.331 750.728C612.02 750.375 614.722 750.019 617.435 749.661C656.58 744.504 698.103 739.033 736.591 736.566C777.892 733.919 814.916 734.799 841.413 742.83C854.599 746.827 864.712 752.461 871.5 759.877C878.167 767.161 882 776.565 882 789Z" fill="#C05100" stroke="black" stroke-width="12"/>
<path d="M237.949 741.04L270.112 741.04L302.029 741.04L270.112 813.115L237.949 741.04Z" fill="#F5F5F5"/>
<path d="M699.949 741.04L732.112 741.04L764.029 741.04L732.112 813.115L699.949 741.04Z" fill="#F5F5F5"/>
<line x1="368.595" y1="670.726" x2="424.595" y2="704.726" stroke="black" stroke-width="10"/>
<line x1="596.59" y1="668.187" x2="541.733" y2="704.002" stroke="black" stroke-width="10"/>
</svg>
