<svg width="1722" height="1430" viewBox="0 0 1722 1430" fill="none" xmlns="http://www.w3.org/2000/svg">
<path d="M1125.28 788.019C1121.82 784.113 1119.51 778.098 1118.78 769.391C1118.04 760.637 1118.95 749.589 1121.6 736.367C1126.9 709.936 1138.93 676.079 1156.86 637.007C1192.68 558.951 1251.48 461.244 1324.81 362.505C1398.14 263.767 1471.91 182.965 1531.82 132.12C1561.81 106.67 1588.11 88.9186 1608.99 80.0873C1619.44 75.67 1628.29 73.593 1635.42 73.7295C1642.52 73.8653 1647.58 76.1685 1651.04 80.0751C1654.5 83.9817 1656.81 89.9961 1657.54 98.7033C1658.27 107.458 1657.37 118.506 1654.72 131.727C1649.42 158.159 1637.39 192.016 1619.46 231.087C1583.64 309.144 1524.84 406.851 1451.51 505.589C1378.18 604.328 1304.41 685.13 1244.5 735.974C1214.51 761.424 1188.21 779.176 1167.32 788.007C1156.88 792.424 1148.03 794.501 1140.89 794.365C1133.8 794.229 1128.74 791.926 1125.28 788.019Z" fill="#FFBC57" stroke="black" stroke-width="11"/>
<path d="M1565.46 109.408L1595.48 89.336L1628.67 73.8206L1644.1 78.3671L1652.51 86.8678L1656.45 99.7334L1654.24 126.944L1640.16 182.828L1588.59 291.956L1489.22 176.324L1527.79 138.675L1565.46 109.408Z" fill="black"/>
<path d="M670.086 806.124C665.527 808.661 659.157 809.617 650.497 808.458C641.789 807.292 631.194 804.034 618.854 798.598C594.182 787.731 563.709 768.692 529.413 742.774C460.896 690.994 378.138 612.539 297.498 519.674C216.859 426.809 153.831 337.375 117.076 267.921C98.6779 233.156 87.0025 203.656 82.8744 181.358C80.8096 170.204 80.6855 161.119 82.3549 154.179C84.0154 147.277 87.354 142.83 91.9137 140.293C96.4734 137.756 102.843 136.8 111.504 137.959C120.211 139.124 130.806 142.383 143.147 147.819C167.818 158.686 198.291 177.725 232.587 203.643C301.104 255.422 383.863 333.878 464.502 426.743C545.141 519.608 608.169 609.042 644.924 678.496C663.322 713.261 674.997 742.76 679.126 765.059C681.19 776.212 681.315 785.298 679.645 792.238C677.985 799.14 674.646 803.586 670.086 806.124Z" fill="#FFBC57" stroke="black" stroke-width="11"/>
<path d="M1511.53 929.625C1511.53 961.794 1512.96 993.245 1514.33 1023.48C1514.44 1025.94 1514.55 1028.4 1514.66 1030.84C1516.13 1063.42 1517.39 1094.49 1516.64 1123.99C1515.15 1183.04 1505.62 1234.5 1474.79 1277.34C1444.02 1320.08 1390.93 1355.74 1299.11 1380.68C1207.21 1405.65 1077.41 1419.63 894.529 1419.63C711.65 1419.63 581.849 1405.65 489.947 1380.68C398.131 1355.74 345.038 1320.08 314.27 1277.34C283.442 1234.5 273.912 1183.04 272.416 1123.99C271.669 1094.49 272.928 1063.42 274.396 1030.84C274.506 1028.39 274.618 1025.94 274.729 1023.47C276.102 993.244 277.529 961.794 277.529 929.625C277.529 660.999 551.539 439.625 894.529 439.625C1237.52 439.625 1511.53 660.999 1511.53 929.625Z" fill="#FFBC57" stroke="black" stroke-width="20"/>
<circle cx="400.029" cy="1208" r="99" fill="#FF3232"/>
<circle cx="1388.03" cy="1208" r="99" fill="#FF3232"/>
<path d="M728.029 1108.5L741.529 1127L762.529 1142L782.029 1154L809.029 1161.5L844.529 1154L875.029 1135.5L907.029 1108.5L947.529 1142L974.029 1154L997.029 1161.5L1024.53 1154L1048.53 1142L1065.03 1127L1081.53 1108.5" stroke="black" stroke-width="19"/>
<path d="M102.136 230.185L88.9981 196.543L80.9896 160.796L88.7515 146.704L98.863 140.323L112.276 139.242L138.373 147.255L189.914 173.041L285.385 246.886L151.072 319.044L122.609 273.27L102.136 230.185Z" fill="black"/>
<path d="M838.029 929.696L908.725 929.696L979.45 929.725L908.725 1000.42L838.029 929.696Z" fill="#252525"/>
<rect x="1259.06" y="471.688" width="164.535" height="79.386" transform="rotate(36.0692 1259.06 471.688)" fill="#FFBC57"/>
<rect x="381.899" y="600.409" width="167.406" height="79.386" transform="rotate(-40.7017 381.899 600.409)" fill="#FFBC57"/>
</svg>
