<svg width="1000" height="1000" viewBox="0 0 1000 1000" fill="none" xmlns="http://www.w3.org/2000/svg">
<circle cx="500" cy="500" r="490" fill="white" stroke="black" stroke-width="20"/>
<path d="M490.5 15L591.5 24L684 53.5L770 96.5L844.5 157.5L904.5 231.5L949 319.5L975 411.5L982.5 507H18.5L23 411.5L52 319.5L97.5 231.5L159.5 157.5L228 96.5L311 53.5L398.5 24L490.5 15Z" fill="#FF3F3F"/>
<line y1="517" x2="1000" y2="517" stroke="black" stroke-width="20"/>
<circle cx="500.5" cy="526.5" r="149.5" fill="white" stroke="black" stroke-width="20"/>
<path d="M430.37 160.92C431.702 156.454 433.032 151.957 434.278 147.462C434.919 152.639 435.67 157.857 436.545 162.769C437.933 170.561 439.694 177.943 441.978 183.176C443.093 185.73 444.563 188.327 446.615 190.105C447.697 191.041 449.081 191.872 450.77 192.215C452.509 192.568 454.218 192.33 455.764 191.665C458.605 190.442 460.784 187.84 462.547 184.994C464.402 181.999 466.253 177.972 468.141 172.873C474.818 154.841 482.833 120.93 492.517 63.5369C507.616 117.99 518.865 149.442 527.319 165.363C529.719 169.882 532.022 173.404 534.289 175.892C536.447 178.26 539.229 180.416 542.642 180.639C546.45 180.887 549.175 178.677 550.841 176.426C552.468 174.228 553.615 171.359 554.483 168.395C557.928 156.631 558.845 136.398 558.982 119.721C559.006 116.801 559.006 113.964 558.99 111.268C560.203 113.965 561.473 116.885 562.766 119.997C570.017 137.439 577.924 160.708 580.839 184.412C583.761 208.175 581.592 231.727 569.462 250.359C557.539 268.675 535.349 283.201 496.122 287.936C462.002 280.504 442.133 269.541 431.032 256.983C419.999 244.504 417.035 229.768 418.255 213.37C419.435 197.522 424.472 180.661 429.628 163.405C429.875 162.578 430.122 161.75 430.37 160.92Z" fill="#FF794F" stroke="black" stroke-width="10"/>
</svg>
