<svg width="1000" height="1000" viewBox="0 0 1000 1000" fill="none" xmlns="http://www.w3.org/2000/svg">
<circle cx="500" cy="500" r="490" fill="white" stroke="black" stroke-width="20"/>
<path d="M490.5 15L591.5 24L684 53.5L770 96.5L844.5 157.5L904.5 231.5L949 319.5L975 411.5L982.5 507H18.5L23 411.5L52 319.5L97.5 231.5L159.5 157.5L228 96.5L311 53.5L398.5 24L490.5 15Z" fill="#FF3F3F"/>
<line y1="517" x2="1000" y2="517" stroke="black" stroke-width="20"/>
<circle cx="500.5" cy="526.5" r="149.5" fill="white" stroke="black" stroke-width="20"/>
<path d="M551.029 181.795C552.759 191.793 554.658 202.772 556.999 214.715C556.799 268.21 523.192 297 497.594 297C484.455 297 468.305 290.301 457.18 277.429C446.275 264.812 440.06 246.093 446.791 221.459C452.13 206.736 458.012 198.083 464.002 191.824C468.276 187.359 472.484 184.171 477.048 180.713C479.193 179.089 481.415 177.405 483.76 175.501C490.921 169.687 498.125 162.558 504.786 150.458C510.742 139.64 516.176 125.012 520.896 104.048C531.683 111.904 537.722 122.945 542.258 138.812C544.929 148.157 547.032 159.021 549.281 171.759C549.85 174.986 550.429 178.332 551.029 181.795Z" fill="#79CA82" stroke="#020202" stroke-width="10"/>
<rect x="472.367" y="293.298" width="4.99339" height="41.829" transform="rotate(24.8881 472.367 293.298)" fill="#070707" stroke="black" stroke-width="4"/>
<path d="M474.377 290.583L488.11 260.664L499.851 235.683L510.843 214.198L517.338 200.209L524.083 184.72L526.831 168.482L527.581 147.497L526.082 127.762L520.843 101.721" stroke="black" stroke-width="7"/>
</svg>
