<svg width="1010" height="988" viewBox="0 0 1010 988" fill="none" xmlns="http://www.w3.org/2000/svg">
<path d="M999.5 488.5C999.5 759.042 777.698 978 507 978C235.833 978 10.5 772.088 10.5 502C10.5 231.496 236.264 10 507 10C777.992 10 999.5 218.246 999.5 488.5Z" fill="#83F8FF" stroke="black" stroke-width="20"/>
<path d="M492.381 651.011L494.881 652.087L497.336 650.915C543.238 629.01 639.15 601.551 723.514 593.363C765.749 589.264 804.379 590.074 832.196 598.391C846.061 602.537 856.806 608.422 864.04 616.081C871.145 623.603 875.181 633.162 875.181 645.499C875.181 670.824 859.205 700.332 831.862 730.912C804.714 761.274 767.208 791.748 726.081 818.914C684.979 846.064 640.468 869.772 599.445 886.672C558.266 903.637 521.18 913.499 494.752 913.499C468.353 913.499 432.402 903.653 392.931 886.707C353.606 869.823 311.342 846.134 272.48 819.001C233.597 791.854 198.319 761.397 172.832 731.052C147.186 700.519 132.181 670.962 132.181 645.499C132.181 632.957 135.826 623.266 142.142 615.705C148.536 608.051 158.022 602.161 170.339 597.972C195.12 589.543 229.909 588.483 268.894 592.423C346.67 600.283 438.216 627.71 492.381 651.011Z" fill="#C05100" stroke="black" stroke-width="12"/>
<line x1="384.595" y1="543.726" x2="440.595" y2="577.726" stroke="black" stroke-width="10"/>
<line x1="599.84" y1="541.122" x2="545.83" y2="578.201" stroke="black" stroke-width="10"/>
</svg>
